<?xml version="1.0"?>
<svg xmlns="http://www.w3.org/2000/svg" xmlns:xlink="http://www.w3.org/1999/xlink" xmlns:svgjs="http://svgjs.com/svgjs" version="1.1" width="512" height="512" x="0" y="0" viewBox="0 0 24 24" style="enable-background:new 0 0 512 512" xml:space="preserve" class=""><g><path xmlns="http://www.w3.org/2000/svg" d="m19 11c-2.757 0-5 2.271-5 5.063 0 3.853 4.328 7.6 4.512 7.757.141.12.314.18.488.18s.347-.06.488-.18c.184-.158 4.512-3.905 4.512-7.757 0-2.792-2.243-5.063-5-5.063zm0 7c-1.103 0-2-.897-2-2s.897-2 2-2 2 .897 2 2-.897 2-2 2z" fill="#ffffff" data-original="#000000" style="" class=""/><path xmlns="http://www.w3.org/2000/svg" d="m23 8h-.06l-.72-5.4c-.2-1.48-1.47-2.6-2.97-2.6h-14.5c-1.5 0-2.77 1.12-2.97 2.6l-.72 5.4h-.06c-.55 0-1 .45-1 1s.45 1 1 1h1v9c0 1.65 1.35 3 3 3h9.21c-.43-.61-.85-1.28-1.2-2h-8.01c-.55 0-1-.45-1-1v-9h11.43c1.05-.64 2.27-1 3.57-1s2.52.36 3.57 1h.43c.55 0 1-.45 1-1s-.45-1-1-1zm-17.44 0h-2.48l.68-5.13c.07-.5.49-.87.99-.87h1.61zm5.44 0h-3.42l.8-6h2.62zm2 0v-6h2.62l.8 6zm5.44 0-.8-6h1.61c.5 0 .92.37.99.87l.68 5.13z" fill="#ffffff" data-original="#000000" style="" class=""/><path xmlns="http://www.w3.org/2000/svg" d="m7.75 18h1.5c.965 0 1.75-.785 1.75-1.75v-1.5c0-.965-.785-1.75-1.75-1.75h-1.5c-.965 0-1.75.785-1.75 1.75v1.5c0 .965.785 1.75 1.75 1.75z" fill="#ffffff" data-original="#000000" style="" class=""/></g></svg>
