<?xml version="1.0" encoding="iso-8859-1"?>
<!-- Generator: Adobe Illustrator 19.0.0, SVG Export Plug-In . SVG Version: 6.00 Build 0)  -->
<svg version="1.1" id="Layer_1" xmlns="http://www.w3.org/2000/svg" xmlns:xlink="http://www.w3.org/1999/xlink" x="0px" y="0px"
	 viewBox="0 0 512 512" style="enable-background:new 0 0 512 512;" xml:space="preserve">
<g>
	<g>
		<g>
			<path d="M128,477.867H8.533C3.814,477.867,0,481.69,0,486.4s3.814,8.533,8.533,8.533H128c4.719,0,8.533-3.823,8.533-8.533
				S132.719,477.867,128,477.867z"/>
			<path d="M42.667,409.6c4.719,0,8.533-3.823,8.533-8.533s-3.814-8.533-8.533-8.533c-14.362,0-25.6-11.247-25.6-25.6v-25.6H25.6
				c4.719,0,8.533-3.823,8.533-8.533s-3.814-8.533-8.533-8.533h-8.533V204.8h42.667c4.719,0,8.533-3.823,8.533-8.533
				s-3.814-8.533-8.533-8.533H17.067v-76.8c0-14.114,11.486-25.6,25.6-25.6h204.8c4.719,0,8.533-3.823,8.533-8.533V51.2
				c0-19.14-14.993-34.133-34.133-34.133c-18.825,0-34.133,15.309-34.133,34.133v17.067H42.667C19.14,68.267,0,87.407,0,110.933v256
				C0,390.861,18.739,409.6,42.667,409.6z M204.8,51.2c0-9.412,7.654-17.067,17.067-17.067c9.737,0,17.067,7.339,17.067,17.067
				v17.067H204.8V51.2z"/>
			<path d="M264.533,477.867H179.2c-4.719,0-8.533,3.823-8.533,8.533s3.814,8.533,8.533,8.533h85.333
				c4.719,0,8.533-3.823,8.533-8.533S269.252,477.867,264.533,477.867z"/>
			<path d="M128,256h34.133c4.719,0,8.533-3.823,8.533-8.533v-25.6h25.6c4.719,0,8.533-3.823,8.533-8.533V179.2
				c0-4.71-3.814-8.533-8.533-8.533h-25.6v-25.6c0-4.71-3.814-8.533-8.533-8.533H128c-4.719,0-8.533,3.823-8.533,8.533v25.6h-25.6
				c-4.719,0-8.533,3.823-8.533,8.533v34.133c0,4.71,3.814,8.533,8.533,8.533h25.6v25.6C119.467,252.177,123.281,256,128,256z
				 M102.4,204.8v-17.067H128c4.719,0,8.533-3.823,8.533-8.533v-25.6H153.6v25.6c0,4.71,3.814,8.533,8.533,8.533h25.6V204.8h-25.6
				c-4.719,0-8.533,3.823-8.533,8.533v25.6h-17.067v-25.6c0-4.71-3.814-8.533-8.533-8.533H102.4z"/>
			<path d="M418.133,375.467c-14.114,0-25.6,11.486-25.6,25.6s11.486,25.6,25.6,25.6s25.6-11.486,25.6-25.6
				S432.247,375.467,418.133,375.467z M418.133,409.6c-4.71,0-8.533-3.831-8.533-8.533c0-4.702,3.823-8.533,8.533-8.533
				s8.533,3.831,8.533,8.533C426.667,405.769,422.844,409.6,418.133,409.6z"/>
			<path d="M500.966,267.034l-23.731-23.731l-24.977-133.205c-0.452-23.142-19.405-41.83-42.658-41.83h-128
				c-4.719,0-8.533,3.823-8.533,8.533v110.933H230.4c-4.719,0-8.533,3.823-8.533,8.533s3.814,8.533,8.533,8.533h42.667v25.6
				c0,15.309,10.291,25.6,25.6,25.6h167.134l23.1,23.1c4.864,4.864,6.016,16.051,6.033,19.567v25.6H486.4
				c-4.719,0-8.533,3.823-8.533,8.533s3.814,8.533,8.533,8.533h8.533v51.2h-17.749c-4.156-28.902-29.013-51.2-59.051-51.2
				c-32.93,0-59.733,26.795-59.733,59.733c0,32.939,26.803,59.733,59.733,59.733c30.037,0,54.895-22.298,59.051-51.2h26.283
				c4.719,0,8.533-3.823,8.533-8.533v-102.4C512,296.559,511.693,277.751,500.966,267.034z M414.874,238.933l10.897-21.786
				c2.108-4.215,0.393-9.335-3.823-11.452c-4.207-2.108-9.327-0.393-11.452,3.823l-14.703,29.414h-97.126
				c-5.743,0-8.533-2.79-8.533-8.533V85.333H409.6c13.875,0,25.6,11.725,25.6,25.6c0,0.529,0.051,1.058,0.154,1.57l23.706,126.43
				H414.874z M418.133,443.733c-23.526,0-42.667-19.14-42.667-42.667c0-23.526,19.14-42.667,42.667-42.667
				c23.526,0,42.667,19.14,42.667,42.667C460.8,424.593,441.66,443.733,418.133,443.733z"/>
			<path d="M503.467,477.867H366.933c-4.719,0-8.533,3.823-8.533,8.533s3.814,8.533,8.533,8.533h136.533
				c4.719,0,8.533-3.823,8.533-8.533S508.186,477.867,503.467,477.867z"/>
			<path d="M332.8,273.067c-4.719,0-8.533,3.823-8.533,8.533v110.933H187.051c-4.156-28.902-29.013-51.2-59.051-51.2
				c-32.93,0-59.733,26.795-59.733,59.733c0,32.939,26.803,59.733,59.733,59.733c30.037,0,54.895-22.298,59.051-51.2H332.8
				c4.719,0,8.533-3.823,8.533-8.533V281.6C341.333,276.89,337.519,273.067,332.8,273.067z M128,443.733
				c-23.526,0-42.667-19.14-42.667-42.667c0-23.526,19.14-42.667,42.667-42.667c23.526,0,42.667,19.14,42.667,42.667
				C170.667,424.593,151.526,443.733,128,443.733z"/>
			<path d="M332.8,477.867h-17.067c-4.719,0-8.533,3.823-8.533,8.533s3.814,8.533,8.533,8.533H332.8
				c4.719,0,8.533-3.823,8.533-8.533S337.519,477.867,332.8,477.867z"/>
			<path d="M128,375.467c-14.114,0-25.6,11.486-25.6,25.6s11.486,25.6,25.6,25.6s25.6-11.486,25.6-25.6S142.114,375.467,128,375.467
				z M128,409.6c-4.71,0-8.533-3.831-8.533-8.533c0-4.702,3.823-8.533,8.533-8.533s8.533,3.831,8.533,8.533
				C136.533,405.769,132.71,409.6,128,409.6z"/>
		</g>
	</g>
</g>
<g>
</g>
<g>
</g>
<g>
</g>
<g>
</g>
<g>
</g>
<g>
</g>
<g>
</g>
<g>
</g>
<g>
</g>
<g>
</g>
<g>
</g>
<g>
</g>
<g>
</g>
<g>
</g>
<g>
</g>
</svg>
