<svg width="1400" height="400" viewBox="0 0 1400 400" fill="none" xmlns="http://www.w3.org/2000/svg">
<g id="Vector">
<path d="M375 0H20C8.95428 0 0 8.95432 0 20V380C0 391.046 8.95428 400 20 400H375C375 386.193 386.193 375 400 375V25C386.193 25 375 13.8071 375 0Z" fill="#303030"/>
<path d="M400 25C413.807 25 425 13.8071 425 0H1380C1391.05 0 1400 8.95432 1400 20V380C1400 391.046 1391.05 400 1380 400H425C425 386.193 413.807 375 400 375V25Z" fill="white"/>
<path d="M396 34H404V54H396V34Z" fill="#FBE7A3"/>
<path d="M396 74H404V94H396V74Z" fill="#FBE7A3"/>
<path d="M396 114H404V134H396V114Z" fill="#FBE7A3"/>
<path d="M396 154H404V174H396V154Z" fill="#FBE7A3"/>
<path d="M396 194H404V214H396V194Z" fill="#FBE7A3"/>
<path d="M396 234H404V254H396V234Z" fill="#FBE7A3"/>
<path d="M396 274H404V294H396V274Z" fill="#FBE7A3"/>
<path d="M396 314H404V334H396V314Z" fill="#FBE7A3"/>
<path d="M396 350H404V370H396V350Z" fill="#FBE7A3"/>
</g>
</svg>
